PathFileType	4	(X/Y/Z)	C:/Users/beibeiliu/ov580/test_trc/User2\sequence.5_training_dense_left.trc
DataRate	CameraRate	NumFrames	NumMarkers	Units	OrigDataRate	OrigDataStartFrame	OrigNumFrames
120	120	13	19	mm	120	49	72
Frame#	Time	ThumbCMC			ThumbMCP			ThumbIP			ThumbTip			IndexMCP			IndexPIP			IndexTip			MiddleMCP			MiddlePIP			MiddleTip			RingMCP			RingPIP			RingTip			PinkyMCP			PinkyPIP			PinkyTip			BackHand1			BackHand2			BackHand3	
		X0	Y0	Z0	X1	Y1	Z1	X2	Y2	Z2	X3	Y3	Z3	X4	Y4	Z4	X5	Y5	Z5	X6	Y6	Z6	X7	Y7	Z7	X8	Y8	Z8	X9	Y9	Z9	X10	Y10	Z10	X11	Y11	Z11	X12	Y12	Z12	X13	Y13	Z13	X14	Y14	Z14	X15	Y15	Z15	X16	Y16	Z16	X17	Y17	Z17	X18	Y18	Z18	
48	0.4	-166.241	-29.8972	-16.8753	-160.466	-53.0757	-47.6061	-163.415	-70.3852	-82.5719	-188.487	-77.5084	-97.4096	-190.393	10.129	-87.1732	-190.348	14.6854	-112.743	-191.928	21.5788	-138.472	-216.13	-16.9531	-94.5751	-203.853	-50.4482	-111.209	-189.488	-73.3469	-81.4745	-228.677	-36.4095	-87.9333	-218.292	-69.1546	-91.9217	-198.173	-73.7773	-59.6537	-242.841	-54.2816	-75.7364	-218.724	-76.8119	-68.6846	-208.041	-70.2324	-42.6003	-237.877	-11.1301	-27.0099	-232.318	-12.3417	2.67156	-203.35	-0.0556009	-13.1206	
49	0.408333	-157.014	-28.5314	-17.5869	-150.949	-50.1606	-44.0979	-152.803	-66.6601	-76.9843	-172.058	-75.9254	-98.4613	-177.847	10.8473	-87.6925	-172.333	15.8934	-112.921	-170.856	22.7119	-136.129	-201.591	-16.0228	-96.7911	-191.843	-49.1633	-110.386	-181.831	-74.5018	-77.8204	-218.246	-37.804	-91.4942	-201.988	-67.2071	-92.9153	-190.509	-76.3731	-60.3633	-230.733	-47.5538	-74.955	-208.41	-73.6729	-73.6043	-198.747	-71.7852	-40.4647	-229.444	-9.48572	-31.8956	-224.257	-12.8836	2.63662	-195.097	0.903654	-14.1492	
50	0.416667	-155.37	-26.945	-9.03948	-144.212	-47.1322	-41.5382	-143.616	-62.8762	-72.3145	-156.243	-73.1428	-97.987	-165.891	11.6374	-79.9678	-161.606	18.0465	-109.74	-153.284	23.909	-131.607	-191.355	-13.9603	-95.6461	-179.461	-46.4869	-110.395	-172.619	-71.1043	-81.0912	-207.138	-33.3405	-91.6991	-192.826	-66.0131	-93.4329	-181.936	-72.3884	-58.1153	-221.034	-49.9479	-80.8119	-202.116	-75.2699	-76.2318	-190.288	-70.3092	-46.3045	-224.484	-9.02926	-32.2015	-226.627	-10.7399	-0.451574	-193.122	3.22412	-13.9172	
51	0.425	-153.953	-25.0753	-5.07199	-136.568	-44.929	-35.1188	-136.399	-58.4999	-67.72	-147.03	-67.4715	-96.5422	-156.963	14.0156	-79.5575	-144.718	17.9163	-104.451	-134.913	22.051	-131.2	-180.325	-10.1891	-94.6595	-165.194	-38.5209	-110.556	-162.377	-68.5607	-76.0515	-194.344	-30.3054	-93.6002	-179.08	-60.127	-94.6748	-176.631	-70.4174	-61.6356	-215.691	-46.6169	-83.1908	-190.706	-71.8559	-77.1206	-185.329	-64.9813	-47.6567	-218.495	-7.45911	-36.7543	-226.904	-11.684	-3.49602	-189.253	6.32031	-13.922	
52	0.433333	-155.737	-22.7271	-5.35358	-136.037	-41.2818	-29.1884	-127.376	-54.1513	-69.1142	-137.408	-64.1127	-91.5633	-149.612	10.8956	-78.0344	-133.675	11.3497	-101.364	-119.31	9.65319	-127.363	-171.225	-10.689	-97.9901	-154.165	-38.203	-108.984	-150.077	-64.1983	-76.5015	-190.206	-31.2204	-93.6176	-170.539	-58.3175	-95.4268	-169.824	-68.3802	-59.7655	-205.968	-47.0016	-85.7006	-182.697	-71.2989	-77.9624	-181.391	-68.1353	-43.9081	-213.221	-8.6485	-40.3809	-226.874	-10.7154	-4.80447	-186.519	6.6569	-16.1087	
53	0.441667	-152.048	-22.7758	0.0243302	-130.716	-39.2262	-30.608	-121.506	-53.1867	-64.0307	-130.191	-63.0726	-85.6431	-142.129	7.06058	-75.8665	-122.995	2.66079	-98.7719	-108.382	-2.77623	-118.566	-160.163	-9.05304	-94.4821	-145.253	-41.2048	-105.463	-146.166	-64.4691	-73.5024	-177.263	-29.9042	-93.9031	-164.611	-58.018	-95.1922	-161.012	-66.7758	-61.0975	-196.852	-44.862	-85.7618	-174.421	-69.7008	-78.9943	-173.939	-68.3313	-47.0073	-214.289	-9.16331	-38.7407	-222.676	-10.3842	-8.1493	-183.315	6.78527	-15.5767	
54	0.45	-150.781	-20.7914	-3.16972	-131.746	-38.9895	-26.5594	-119.919	-52.5071	-60.365	-127.213	-62.9207	-83.2954	-140	5.82589	-76.126	-119.201	-0.526979	-99.9741	-105.828	-8.91356	-117.232	-163.228	-10.1656	-93.6595	-142.068	-40.8417	-102.487	-141.784	-63.2872	-70.119	-179.494	-31.8036	-93.3105	-162.149	-60.7385	-93.07	-159.544	-64.9125	-59.2514	-192.915	-47.7425	-86.8467	-171.868	-70.7516	-78.4876	-172.801	-66.094	-46.836	-212.095	-9.87302	-40.9028	-223.191	-14.5783	-7.90373	-183.608	4.41815	-13.9703	
55	0.458333	-154.33	-21.0196	-2.22428	-131.132	-38.1085	-28.8118	-123.441	-51.2302	-59.1386	-123.82	-61.996	-86.459	-143.425	6.73995	-75.1571	-123.416	-1.39268	-98.0275	-107.687	-10.5158	-118.502	-161.725	-7.27455	-91.9469	-140.792	-37.809	-102.956	-143.456	-62.3421	-73.9896	-178.083	-26.928	-91.4762	-159.86	-58.9661	-92.0684	-159.727	-63.4598	-58.7135	-195.218	-46.4091	-86.8592	-171.621	-67.7706	-80.6412	-174.888	-66.7999	-44.1719	-209.988	-9.40725	-39.042	-220.7	-11.2603	-8.77734	-188.016	6.48238	-11.4309	
56	0.466667	-152.772	-17.7345	-3.25559	-130.161	-34.8248	-28.5911	-119.433	-47.055	-60.9059	-122.57	-57.5084	-85.4594	-141.757	12.1829	-75.1731	-123.444	5.21635	-95.7632	-108.625	-3.18607	-115.677	-162.261	-3.26789	-93.1831	-144.118	-35.0126	-102.69	-145.397	-58.7622	-70.7631	-179.342	-23.8971	-91.2333	-160.883	-54.2764	-91.7272	-159.701	-57.5458	-56.119	-195.805	-39.6521	-84.0222	-172.498	-63.572	-81.9042	-173.555	-65.1949	-46.4323	-213.499	-6.85924	-43.5437	-225.716	-10.7365	-6.73174	-185.447	7.83119	-13.536	
57	0.475	-153.419	-17.5384	0.760004	-131.61	-31.4282	-26.2395	-123.154	-41.7593	-62.1351	-125.754	-49.9954	-85.4012	-140.019	18.163	-74.3157	-125.78	13.7703	-97.1904	-109.128	6.94696	-118.653	-162.552	2.53069	-91.4027	-144.977	-24.9966	-104.037	-143.849	-53.6437	-70.6144	-174.877	-20.0052	-93.3626	-157.733	-46.681	-92.315	-158.251	-54.5464	-59.3912	-194.718	-35.3841	-85.2115	-171.664	-62.2771	-80.1171	-170.66	-64.4477	-47.9819	-211.937	-5.17313	-38.8517	-219.597	-6.66852	-5.03277	-186.769	9.75959	-9.37227	
58	0.483333	-146.595	-17.063	3.56024	-128.605	-31.0602	-26.1854	-117.627	-39.7779	-57.8612	-122.615	-45.8207	-86.8393	-140.065	23.2055	-68.547	-124.609	21.4911	-92.4242	-107.651	16.6718	-119.589	-160.856	6.56803	-86.301	-140.833	-25.0901	-100.12	-140.048	-51.5017	-70.8814	-175.321	-14.0137	-89.5299	-157.698	-43.4149	-91.2957	-156.415	-52.9494	-59.5971	-192.391	-30.5137	-85.0846	-169.735	-54.7692	-81.8558	-169.309	-60.6993	-47.3569	-204.628	1.2938	-36.8294	-218.2	-7.38713	-2.56018	-183.379	11.3153	-7.99476	
59	0.491667	-144.27	-20.2534	5.14059	-126.873	-33.7037	-25.9394	-117.178	-41.6559	-58.5158	-123.919	-46.7834	-86.2828	-134.952	24.7349	-68.7819	-118.466	24.3018	-92.3	-110.752	20.0768	-114.967	-158.676	7.41517	-87.621	-141.17	-19.3326	-102.267	-143.021	-51.8708	-77.4591	-173.895	-12.7576	-90.7384	-156.679	-40.3328	-92.1004	-158.301	-55.3501	-58.2881	-193.958	-26.4946	-81.8431	-171.283	-55.4589	-82.5134	-169.677	-60.629	-54.2987	-208.653	-0.58213	-31.8628	-217.607	-6.21239	-1.0749	-177.178	11.494	-3.8784	
60	0.5	-144.216	-22.7067	5.28105	-127.908	-35.0379	-24.7428	-115.656	-42.2417	-61.7313	-120.251	-46.8593	-84.7473	-141.696	20.9934	-64.7481	-128.04	22.9829	-92.0466	-116.042	19.2037	-121.888	-159.095	11.0041	-84.1582	-147.821	-14.0669	-106.513	-140.771	-52.3959	-87.6356	-180.039	-6.88431	-89.5807	-166.301	-34.942	-101.144	-159.465	-54.9854	-74.0491	-197.954	-21.2954	-81.1732	-180.89	-48.0354	-93.2526	-172.126	-66.1653	-68.3265	-205.013	1.25567	-31.5962	-214.727	-7.0252	4.20928	-180.354	6.1819	-4.53586	
